<svg width="300" height="100" viewBox="0 0 300 100" fill="none" xmlns="http://www.w3.org/2000/svg">
<rect width="300" height="100" rx="20" fill="#2F2F2F"/>
<path d="M29.8 14C26.9357 14 24.1886 15.1379 22.1632 17.1632C20.1379 19.1886 19 21.9357 19 24.8V75.2C19 78.0643 20.1379 80.8114 22.1632 82.8367C24.1886 84.8621 26.9357 86 29.8 86H80.2C83.0643 86 85.8114 84.8621 87.8367 82.8367C89.8621 80.8114 91 78.0643 91 75.2V24.8C91 21.9357 89.8621 19.1886 87.8367 17.1632C85.8114 15.1379 83.0643 14 80.2 14H29.8ZM29.8 32C29.8 31.0452 30.1793 30.1295 30.8544 29.4544C31.5295 28.7793 32.4452 28.4 33.4 28.4H47.8C48.7548 28.4 49.6704 28.7793 50.3456 29.4544C51.0207 30.1295 51.4 31.0452 51.4 32V68C51.4 68.9548 51.0207 69.8705 50.3456 70.5456C49.6704 71.2207 48.7548 71.6 47.8 71.6H33.4C32.4452 71.6 31.5295 71.2207 30.8544 70.5456C30.1793 69.8705 29.8 68.9548 29.8 68V32ZM58.6 32C58.6 31.0452 58.9793 30.1295 59.6544 29.4544C60.3295 28.7793 61.2452 28.4 62.2 28.4H76.6C77.5548 28.4 78.4704 28.7793 79.1456 29.4544C79.8207 30.1295 80.2 31.0452 80.2 32V57.2C80.2 58.1548 79.8207 59.0705 79.1456 59.7456C78.4704 60.4207 77.5548 60.8 76.6 60.8H62.2C61.2452 60.8 60.3295 60.4207 59.6544 59.7456C58.9793 59.0705 58.6 58.1548 58.6 57.2V32Z" fill="white"/>
<path d="M107.688 41V14.8182H114.795V25.4034H115.153L123.028 14.8182H131.312L122.466 26.4773L131.517 41H123.028L117.148 31.1818L114.795 34.25V41H107.688ZM140.53 14.8182V41H133.422V14.8182H140.53ZM160.901 23.4602C160.79 23.0085 160.616 22.6122 160.377 22.2713C160.138 21.9219 159.84 21.6278 159.482 21.3892C159.133 21.142 158.724 20.9588 158.255 20.8395C157.795 20.7116 157.288 20.6477 156.734 20.6477C155.54 20.6477 154.522 20.9332 153.678 21.5043C152.843 22.0753 152.204 22.8977 151.761 23.9716C151.326 25.0455 151.109 26.3409 151.109 27.858C151.109 29.392 151.317 30.7045 151.735 31.7955C152.153 32.8864 152.775 33.7216 153.602 34.3011C154.428 34.8807 155.455 35.1705 156.683 35.1705C157.765 35.1705 158.664 35.0128 159.38 34.6974C160.104 34.3821 160.646 33.9347 161.004 33.3551C161.362 32.7756 161.54 32.0937 161.54 31.3097L162.768 31.4375H156.785V26.375H168.393V30.0057C168.393 32.392 167.886 34.4332 166.871 36.1293C165.866 37.8168 164.477 39.1122 162.704 40.0156C160.94 40.9105 158.915 41.358 156.631 41.358C154.083 41.358 151.846 40.8168 149.92 39.7344C147.994 38.652 146.489 37.1094 145.407 35.1065C144.333 33.1037 143.796 30.7216 143.796 27.9602C143.796 25.7955 144.124 23.8778 144.781 22.2074C145.445 20.5369 146.366 19.1264 147.542 17.9759C148.718 16.8168 150.077 15.9432 151.62 15.3551C153.163 14.7585 154.816 14.4602 156.58 14.4602C158.131 14.4602 159.572 14.6818 160.901 15.125C162.239 15.5597 163.42 16.1818 164.442 16.9915C165.474 17.7926 166.305 18.7429 166.935 19.8423C167.566 20.9418 167.95 22.1477 168.086 23.4602H160.901ZM175.645 41.4091C174.656 41.4091 173.808 41.0639 173.1 40.3736C172.402 39.6747 172.056 38.8267 172.065 37.8295C172.056 36.858 172.402 36.027 173.1 35.3366C173.808 34.6463 174.656 34.3011 175.645 34.3011C176.582 34.3011 177.409 34.6463 178.125 35.3366C178.849 36.027 179.216 36.858 179.224 37.8295C179.216 38.4943 179.041 39.0994 178.7 39.6449C178.368 40.1818 177.933 40.6122 177.396 40.9361C176.859 41.2514 176.275 41.4091 175.645 41.4091ZM182.957 41V14.8182H190.065V35.2727H200.65V41H182.957ZM210.325 41H202.654L211.296 14.8182H221.012L229.654 41H221.984L216.256 22.0284H216.052L210.325 41ZM208.893 30.6705H223.313V35.9886H208.893V30.6705ZM254.829 14.8182V41H248.897L239.437 27.2443H239.284V41H232.176V14.8182H238.21L247.517 28.5227H247.721V14.8182H254.829ZM268.265 41H258.191V14.8182H268.163C270.856 14.8182 273.183 15.3423 275.143 16.3906C277.112 17.4304 278.629 18.9304 279.694 20.8906C280.768 22.8423 281.305 25.1818 281.305 27.9091C281.305 30.6364 280.772 32.9801 279.707 34.9403C278.642 36.892 277.133 38.392 275.181 39.4403C273.23 40.4801 270.924 41 268.265 41ZM265.299 34.9659H268.01C269.305 34.9659 270.409 34.7571 271.321 34.3395C272.241 33.9219 272.94 33.2017 273.417 32.179C273.903 31.1562 274.146 29.733 274.146 27.9091C274.146 26.0852 273.899 24.6619 273.404 23.6392C272.919 22.6165 272.203 21.8963 271.257 21.4787C270.319 21.0611 269.169 20.8523 267.805 20.8523H265.299V34.9659ZM107.688 85V58.8182H114.795V69.4034H115.153L123.028 58.8182H131.312L122.466 70.4773L131.517 85H123.028L117.148 75.1818L114.795 78.25V85H107.688ZM140.223 85H132.553L141.195 58.8182H150.911L159.553 85H151.882L146.155 66.0284H145.95L140.223 85ZM138.791 74.6705H153.212V79.9886H138.791V74.6705ZM184.728 58.8182V85H178.796L169.336 71.2443H169.182V85H162.074V58.8182H168.108L177.415 72.5227H177.62V58.8182H184.728ZM188.09 85V58.8182H199.442C201.436 58.8182 203.111 59.0866 204.466 59.6236C205.83 60.1605 206.857 60.919 207.547 61.8991C208.246 62.8793 208.596 64.0341 208.596 65.3636C208.596 66.3267 208.382 67.2045 207.956 67.9972C207.539 68.7898 206.951 69.4545 206.192 69.9915C205.434 70.5199 204.547 70.8864 203.533 71.0909V71.3466C204.658 71.3892 205.681 71.6747 206.601 72.2031C207.522 72.723 208.255 73.4432 208.8 74.3636C209.346 75.2756 209.618 76.3494 209.618 77.5852C209.618 79.017 209.243 80.2912 208.493 81.4077C207.752 82.5241 206.695 83.402 205.323 84.0412C203.951 84.6804 202.314 85 200.414 85H188.09ZM195.198 79.3239H198.522C199.715 79.3239 200.61 79.1023 201.206 78.6591C201.803 78.2074 202.101 77.5426 202.101 76.6648C202.101 76.0511 201.961 75.5312 201.679 75.1051C201.398 74.679 200.998 74.3551 200.478 74.1335C199.966 73.9119 199.348 73.8011 198.624 73.8011H195.198V79.3239ZM195.198 69.4034H198.113C198.735 69.4034 199.284 69.3054 199.762 69.1094C200.239 68.9134 200.61 68.6321 200.874 68.2656C201.147 67.8906 201.283 67.4347 201.283 66.8977C201.283 66.0881 200.993 65.4702 200.414 65.044C199.834 64.6094 199.101 64.392 198.215 64.392H195.198V69.4034ZM218.938 85H211.267L219.909 58.8182H229.625L238.267 85H230.597L224.87 66.0284H224.665L218.938 85ZM217.506 74.6705H231.926V79.9886H217.506V74.6705ZM263.442 58.8182V85H257.511L248.05 71.2443H247.897V85H240.789V58.8182H246.823L256.13 72.5227H256.335V58.8182H263.442Z" fill="white"/>
</svg>
