<svg width="300" height="100" viewBox="0 0 300 100" fill="none" xmlns="http://www.w3.org/2000/svg">
<rect width="300" height="100" rx="20" fill="#2F2F2F"/>
<path d="M29.8 14C26.9357 14 24.1886 15.1379 22.1632 17.1632C20.1379 19.1886 19 21.9357 19 24.8V75.2C19 78.0643 20.1379 80.8114 22.1632 82.8367C24.1886 84.8621 26.9357 86 29.8 86H80.2C83.0643 86 85.8114 84.8621 87.8367 82.8367C89.8621 80.8114 91 78.0643 91 75.2V24.8C91 21.9357 89.8621 19.1886 87.8367 17.1632C85.8114 15.1379 83.0643 14 80.2 14H29.8ZM29.8 32C29.8 31.0452 30.1793 30.1295 30.8544 29.4544C31.5295 28.7793 32.4452 28.4 33.4 28.4H47.8C48.7548 28.4 49.6704 28.7793 50.3456 29.4544C51.0207 30.1295 51.4 31.0452 51.4 32V68C51.4 68.9548 51.0207 69.8705 50.3456 70.5456C49.6704 71.2207 48.7548 71.6 47.8 71.6H33.4C32.4452 71.6 31.5295 71.2207 30.8544 70.5456C30.1793 69.8705 29.8 68.9548 29.8 68V32ZM58.6 32C58.6 31.0452 58.9793 30.1295 59.6544 29.4544C60.3295 28.7793 61.2452 28.4 62.2 28.4H76.6C77.5548 28.4 78.4704 28.7793 79.1456 29.4544C79.8207 30.1295 80.2 31.0452 80.2 32V57.2C80.2 58.1548 79.8207 59.0705 79.1456 59.7456C78.4704 60.4207 77.5548 60.8 76.6 60.8H62.2C61.2452 60.8 60.3295 60.4207 59.6544 59.7456C58.9793 59.0705 58.6 58.1548 58.6 57.2V32Z" fill="white"/>
<path d="M107.5 42V18.7273H113.818V28.1364H114.136L121.136 18.7273H128.5L120.636 29.0909L128.682 42H121.136L115.909 33.2727L113.818 36V42H107.5ZM136.693 18.7273V42H130.375V18.7273H136.693ZM154.801 26.4091C154.703 26.0076 154.547 25.6553 154.335 25.3523C154.123 25.0417 153.858 24.7803 153.54 24.5682C153.229 24.3485 152.866 24.1856 152.449 24.0795C152.04 23.9659 151.589 23.9091 151.097 23.9091C150.036 23.9091 149.131 24.1629 148.381 24.6705C147.638 25.178 147.07 25.9091 146.676 26.8636C146.29 27.8182 146.097 28.9697 146.097 30.3182C146.097 31.6818 146.282 32.8485 146.653 33.8182C147.025 34.7879 147.578 35.5303 148.312 36.0455C149.047 36.5606 149.96 36.8182 151.051 36.8182C152.013 36.8182 152.813 36.678 153.449 36.3977C154.093 36.1174 154.574 35.7197 154.892 35.2045C155.21 34.6894 155.369 34.0833 155.369 33.3864L156.46 33.5H151.142V29H161.46V32.2273C161.46 34.3485 161.009 36.1629 160.108 37.6705C159.214 39.1705 157.979 40.322 156.403 41.125C154.835 41.9205 153.036 42.3182 151.006 42.3182C148.741 42.3182 146.752 41.8371 145.04 40.875C143.328 39.9129 141.991 38.5417 141.028 36.7614C140.074 34.9811 139.597 32.8636 139.597 30.4091C139.597 28.4848 139.888 26.7803 140.472 25.2955C141.063 23.8106 141.881 22.5568 142.926 21.5341C143.972 20.5038 145.18 19.7273 146.551 19.2045C147.922 18.6742 149.392 18.4091 150.96 18.4091C152.339 18.4091 153.619 18.6061 154.801 19C155.991 19.3864 157.04 19.9394 157.949 20.6591C158.866 21.3712 159.604 22.2159 160.165 23.1932C160.725 24.1705 161.066 25.2424 161.188 26.4091H154.801ZM167.906 42.3636C167.027 42.3636 166.274 42.0568 165.645 41.4432C165.024 40.822 164.717 40.0682 164.724 39.1818C164.717 38.3182 165.024 37.5795 165.645 36.9659C166.274 36.3523 167.027 36.0455 167.906 36.0455C168.74 36.0455 169.474 36.3523 170.111 36.9659C170.755 37.5795 171.08 38.3182 171.088 39.1818C171.08 39.7727 170.925 40.3106 170.622 40.7955C170.327 41.2727 169.94 41.6553 169.463 41.9432C168.986 42.2235 168.467 42.3636 167.906 42.3636ZM174.406 42V18.7273H180.724V36.9091H190.134V42H174.406ZM198.733 42H191.915L199.597 18.7273H208.233L215.915 42H209.097L204.006 25.1364H203.824L198.733 42ZM197.46 32.8182H210.278V37.5455H197.46V32.8182ZM238.293 18.7273V42H233.02L224.611 29.7727H224.474V42H218.156V18.7273H223.52L231.793 30.9091H231.974V18.7273H238.293ZM250.236 42H241.281V18.7273H250.145C252.539 18.7273 254.607 19.1932 256.349 20.125C258.099 21.0492 259.448 22.3826 260.395 24.125C261.349 25.8598 261.827 27.9394 261.827 30.3636C261.827 32.7879 261.353 34.8712 260.406 36.6136C259.459 38.3485 258.118 39.6818 256.384 40.6136C254.649 41.5379 252.599 42 250.236 42ZM247.599 36.6364H250.009C251.16 36.6364 252.141 36.4508 252.952 36.0795C253.77 35.7083 254.391 35.0682 254.815 34.1591C255.247 33.25 255.463 31.9848 255.463 30.3636C255.463 28.7424 255.243 27.4773 254.804 26.5682C254.372 25.6591 253.736 25.0189 252.895 24.6477C252.062 24.2765 251.039 24.0909 249.827 24.0909H247.599V36.6364ZM107.5 81V57.7273H113.818V67.1364H114.136L121.136 57.7273H128.5L120.636 68.0909L128.682 81H121.136L115.909 72.2727L113.818 75V81H107.5ZM136.42 81H129.602L137.284 57.7273H145.92L153.602 81H146.784L141.693 64.1364H141.511L136.42 81ZM135.148 71.8182H147.966V76.5455H135.148V71.8182ZM175.98 57.7273V81H170.707L162.298 68.7727H162.162V81H155.844V57.7273H161.207L169.48 69.9091H169.662V57.7273H175.98ZM178.969 81V57.7273H189.06C190.832 57.7273 192.321 57.9659 193.526 58.4432C194.738 58.9205 195.651 59.5947 196.264 60.4659C196.885 61.3371 197.196 62.3636 197.196 63.5455C197.196 64.4015 197.007 65.1818 196.628 65.8864C196.257 66.5909 195.734 67.1818 195.06 67.6591C194.385 68.1288 193.598 68.4545 192.696 68.6364V68.8636C193.696 68.9015 194.605 69.1553 195.423 69.625C196.241 70.0871 196.893 70.7273 197.378 71.5455C197.863 72.3561 198.105 73.3106 198.105 74.4091C198.105 75.6818 197.772 76.8144 197.105 77.8068C196.446 78.7992 195.507 79.5795 194.287 80.1477C193.067 80.7159 191.613 81 189.923 81H178.969ZM185.287 75.9545H188.241C189.302 75.9545 190.098 75.7576 190.628 75.3636C191.158 74.9621 191.423 74.3712 191.423 73.5909C191.423 73.0455 191.298 72.5833 191.048 72.2045C190.798 71.8258 190.442 71.5379 189.98 71.3409C189.526 71.1439 188.976 71.0455 188.332 71.0455H185.287V75.9545ZM185.287 67.1364H187.878C188.431 67.1364 188.92 67.0492 189.344 66.875C189.768 66.7008 190.098 66.4508 190.332 66.125C190.575 65.7917 190.696 65.3864 190.696 64.9091C190.696 64.1894 190.438 63.6402 189.923 63.2614C189.408 62.875 188.757 62.6818 187.969 62.6818H185.287V67.1364ZM206.389 81H199.571L207.253 57.7273H215.889L223.571 81H216.753L211.662 64.1364H211.48L206.389 81ZM205.116 71.8182H217.935V76.5455H205.116V71.8182ZM245.949 57.7273V81H240.676L232.267 68.7727H232.131V81H225.812V57.7273H231.176L239.449 69.9091H239.631V57.7273H245.949Z" fill="white"/>
</svg>
